<svg xmlns="http://www.w3.org/2000/svg" viewBox="0 0 512 512" role="img" aria-label="Year Planner — Nordic Clarity icon">
  <title>Year Planner — Nordic Clarity</title>

  <!--
    C2 · NORDIC CLARITY
    Design language: Scandinavian geometric precision, stark dark/light contrast.
    Key colours: bg #F8F9FB · dark #1A1D23 · electric blue #2563EB · coral #F06050
    Structure: bold dark header band (top 35 %) + white grid below with one blue cell
    This reads at 16×16 as: dark top / white bottom / blue dot — instantly distinct from C1/C3
  -->

  <!-- Near-white ground -->
  <rect width="512" height="512" rx="80" fill="#F8F9FB"/>

  <!-- Bold dark header band — the defining Nordic feature -->
  <rect x="0" y="0" width="512" height="176" rx="80" fill="#1A1D23"/>
  <rect x="0" y="96" width="512" height="80" fill="#1A1D23"/>

  <!-- Header: white weekday label dots (7 evenly spaced) -->
  <!-- x positions same as grid columns: 22, 90, 158, 226, 294, 362, 430 — centre of each = +30 -->
  <circle cx="52"  cy="148" r="6" fill="#FFFFFF" opacity="0.55"/>
  <circle cx="120" cy="148" r="6" fill="#FFFFFF" opacity="0.55"/>
  <circle cx="188" cy="148" r="6" fill="#FFFFFF" opacity="0.55"/>
  <circle cx="256" cy="148" r="6" fill="#FFFFFF" opacity="0.9"/>
  <circle cx="324" cy="148" r="6" fill="#FFFFFF" opacity="0.55"/>
  <circle cx="392" cy="148" r="6" fill="#FFFFFF" opacity="0.35"/>
  <circle cx="460" cy="148" r="6" fill="#FFFFFF" opacity="0.35"/>

  <!-- Thin blue accent line beneath header -->
  <rect x="0" y="173" width="512" height="3" fill="#2563EB"/>

  <!--
    Calendar grid
    Columns x: 22, 90, 158, 226, 294, 362, 430   (width 60, gap 8)
    Rows    y: 184, 248, 312, 376, 440             (height 56, gap 8)
    Today cell: col 3, row 0 — electric blue
    Entry cell: col 5, row 2 — coral
  -->

  <!-- Row 1 — today at col 3 -->
  <rect x="22"  y="184" width="60" height="56" rx="6" fill="#FFFFFF" stroke="#E8EAF0" stroke-width="1.5"/>
  <rect x="90"  y="184" width="60" height="56" rx="6" fill="#FFFFFF" stroke="#E8EAF0" stroke-width="1.5"/>
  <rect x="158" y="184" width="60" height="56" rx="6" fill="#FFFFFF" stroke="#E8EAF0" stroke-width="1.5"/>
  <!-- TODAY: electric blue -->
  <rect x="226" y="184" width="60" height="56" rx="6" fill="#2563EB"/>
  <circle cx="256" cy="212" r="18" fill="#FFFFFF" opacity="0.2"/>
  <rect x="294" y="184" width="60" height="56" rx="6" fill="#FFFFFF" stroke="#E8EAF0" stroke-width="1.5"/>
  <rect x="362" y="184" width="60" height="56" rx="6" fill="#F3F4F8" stroke="#E8EAF0" stroke-width="1.5"/>
  <rect x="430" y="184" width="60" height="56" rx="6" fill="#F3F4F8" stroke="#E8EAF0" stroke-width="1.5"/>

  <!-- Row 2 -->
  <rect x="22"  y="248" width="60" height="56" rx="6" fill="#FFFFFF" stroke="#E8EAF0" stroke-width="1.5"/>
  <rect x="90"  y="248" width="60" height="56" rx="6" fill="#FFFFFF" stroke="#E8EAF0" stroke-width="1.5"/>
  <rect x="158" y="248" width="60" height="56" rx="6" fill="#FFFFFF" stroke="#E8EAF0" stroke-width="1.5"/>
  <rect x="226" y="248" width="60" height="56" rx="6" fill="#FFFFFF" stroke="#E8EAF0" stroke-width="1.5"/>
  <rect x="294" y="248" width="60" height="56" rx="6" fill="#FFFFFF" stroke="#E8EAF0" stroke-width="1.5"/>
  <rect x="362" y="248" width="60" height="56" rx="6" fill="#F3F4F8" stroke="#E8EAF0" stroke-width="1.5"/>
  <rect x="430" y="248" width="60" height="56" rx="6" fill="#F3F4F8" stroke="#E8EAF0" stroke-width="1.5"/>

  <!-- Row 3 — coral entry on col 1–2 -->
  <rect x="22"  y="312" width="60" height="56" rx="6" fill="#FFFFFF" stroke="#E8EAF0" stroke-width="1.5"/>
  <rect x="90"  y="312" width="60" height="56" rx="6" fill="#FFE0E0" stroke="#E8EAF0" stroke-width="1.5"/>
  <rect x="158" y="312" width="60" height="56" rx="6" fill="#FFE0E0" stroke="#E8EAF0" stroke-width="1.5"/>
  <rect x="226" y="312" width="60" height="56" rx="6" fill="#FFFFFF" stroke="#E8EAF0" stroke-width="1.5"/>
  <rect x="294" y="312" width="60" height="56" rx="6" fill="#FFFFFF" stroke="#E8EAF0" stroke-width="1.5"/>
  <rect x="362" y="312" width="60" height="56" rx="6" fill="#F3F4F8" stroke="#E8EAF0" stroke-width="1.5"/>
  <rect x="430" y="312" width="60" height="56" rx="6" fill="#F3F4F8" stroke="#E8EAF0" stroke-width="1.5"/>

  <!-- Row 4 -->
  <rect x="22"  y="376" width="60" height="56" rx="6" fill="#FFFFFF" stroke="#E8EAF0" stroke-width="1.5"/>
  <rect x="90"  y="376" width="60" height="56" rx="6" fill="#FFFFFF" stroke="#E8EAF0" stroke-width="1.5"/>
  <rect x="158" y="376" width="60" height="56" rx="6" fill="#D5E5FF" stroke="#E8EAF0" stroke-width="1.5"/>
  <rect x="226" y="376" width="60" height="56" rx="6" fill="#FFFFFF" stroke="#E8EAF0" stroke-width="1.5"/>
  <rect x="294" y="376" width="60" height="56" rx="6" fill="#FFFFFF" stroke="#E8EAF0" stroke-width="1.5"/>
  <rect x="362" y="376" width="60" height="56" rx="6" fill="#F3F4F8" stroke="#E8EAF0" stroke-width="1.5"/>
  <rect x="430" y="376" width="60" height="56" rx="6" fill="#F3F4F8" stroke="#E8EAF0" stroke-width="1.5"/>

  <!-- Row 5 (partial) -->
  <rect x="22"  y="440" width="60" height="56" rx="6" fill="#FFFFFF" stroke="#E8EAF0" stroke-width="1.5"/>
  <rect x="90"  y="440" width="60" height="56" rx="6" fill="#FFFFFF" stroke="#E8EAF0" stroke-width="1.5"/>
  <rect x="158" y="440" width="60" height="56" rx="6" fill="#FFFFFF" stroke="#E8EAF0" stroke-width="1.5"/>
  <rect x="226" y="440" width="60" height="56" rx="6" fill="#FFFFFF" stroke="#E8EAF0" stroke-width="1.5"/>
  <rect x="294" y="440" width="60" height="56" rx="6" fill="#FFFFFF" stroke="#E8EAF0" stroke-width="1.5"/>
  <rect x="362" y="440" width="60" height="56" rx="6" fill="#F3F4F8" stroke="#E8EAF0" stroke-width="1.5"/>
  <rect x="430" y="440" width="60" height="56" rx="6" fill="#F3F4F8" stroke="#E8EAF0" stroke-width="1.5"/>
</svg>
